<?xml version="1.0" encoding="UTF-8" standalone="no"?>
<!DOCTYPE svg PUBLIC "-//W3C//DTD SVG 1.0//EN" "http://www.w3.org/TR/2001/PR-SVG-20010719/DTD/svg10.dtd">
<svg width="35cm" height="15cm" viewBox="199 199 691 285" xmlns="http://www.w3.org/2000/svg" xmlns:xlink="http://www.w3.org/1999/xlink">
  <g>
    <rect style="fill: #ffffff" x="400" y="300" width="200.35" height="42"/>
    <rect style="fill: none; fill-opacity:0; stroke-width: 2; stroke: #000000" x="400" y="300" width="200.35" height="42"/>
    <text style="fill: #000000;text-anchor:middle;font-size:16;font-family:sanserif;font-style:italic;font-weight:700" x="500.175" y="319">AnnotationContainer</text>
    <text style="fill: #000000;text-anchor:middle;font-size:11.2;font-family:sanserif;font-style:italic;font-weight:normal" x="500.175" y="334.5">(4)</text>
    <rect style="fill: #ffffff" x="400" y="342" width="200.35" height="8"/>
    <rect style="fill: none; fill-opacity:0; stroke-width: 2; stroke: #000000" x="400" y="342" width="200.35" height="8"/>
    <rect style="fill: #ffffff" x="400" y="350" width="200.35" height="8"/>
    <rect style="fill: none; fill-opacity:0; stroke-width: 2; stroke: #000000" x="400" y="350" width="200.35" height="8"/>
  </g>
  <g>
    <rect style="fill: #ffffff" x="611.275" y="200" width="91.45" height="42"/>
    <rect style="fill: none; fill-opacity:0; stroke-width: 4; stroke: #000000" x="611.275" y="200" width="91.45" height="42"/>
    <text style="fill: #000000;text-anchor:middle;font-size:16;font-family:sanserif;font-style:normal;font-weight:700" x="657" y="219">primitive</text>
    <text style="fill: #000000;text-anchor:middle;font-size:11.2;font-family:sanserif;font-style:italic;font-weight:normal" x="657" y="234.5">(1)</text>
  </g>
  <g>
    <rect style="fill: #ffffff" x="311.275" y="200" width="103.1" height="42"/>
    <rect style="fill: none; fill-opacity:0; stroke-width: 4; stroke: #000000" x="311.275" y="200" width="103.1" height="42"/>
    <text style="fill: #000000;text-anchor:middle;font-size:16;font-family:sanserif;font-style:normal;font-weight:700" x="362.825" y="219">composite</text>
    <text style="fill: #000000;text-anchor:middle;font-size:11.2;font-family:sanserif;font-style:italic;font-weight:normal" x="362.825" y="234.5">(1)</text>
  </g>
  <g>
    <rect style="fill: #ffffff" x="480" y="200" width="50.4" height="42"/>
    <rect style="fill: none; fill-opacity:0; stroke-width: 4; stroke: #000000" x="480" y="200" width="50.4" height="42"/>
    <text style="fill: #000000;text-anchor:middle;font-size:16;font-family:sanserif;font-style:normal;font-weight:700" x="505.2" y="219">type</text>
    <text style="fill: #000000;text-anchor:middle;font-size:11.2;font-family:sanserif;font-style:italic;font-weight:normal" x="505.2" y="234.5">(1)</text>
  </g>
  <g>
    <rect style="fill: #ffffff" x="200" y="440" width="110.9" height="42"/>
    <rect style="fill: none; fill-opacity:0; stroke-width: 4; stroke: #000000" x="200" y="440" width="110.9" height="42"/>
    <text style="fill: #000000;text-anchor:middle;font-size:16;font-family:sanserif;font-style:normal;font-weight:700" x="255.45" y="459">component</text>
    <text style="fill: #000000;text-anchor:middle;font-size:11.2;font-family:sanserif;font-style:italic;font-weight:normal" x="255.45" y="474.5">(1)</text>
  </g>
  <g>
    <rect style="fill: #ffffff" x="334.5" y="440" width="78.15" height="42"/>
    <rect style="fill: none; fill-opacity:0; stroke-width: 4; stroke: #000000" x="334.5" y="440" width="78.15" height="42"/>
    <text style="fill: #000000;text-anchor:middle;font-size:16;font-family:sanserif;font-style:normal;font-weight:700" x="373.575" y="459">binding</text>
    <text style="fill: #000000;text-anchor:middle;font-size:11.2;font-family:sanserif;font-style:italic;font-weight:normal" x="373.575" y="474.5">(1)</text>
  </g>
  <g>
    <rect style="fill: #ffffff" x="436.25" y="440" width="91.4" height="42"/>
    <rect style="fill: none; fill-opacity:0; stroke-width: 4; stroke: #000000" x="436.25" y="440" width="91.4" height="42"/>
    <text style="fill: #000000;text-anchor:middle;font-size:16;font-family:sanserif;font-style:normal;font-weight:700" x="481.95" y="459">interface</text>
    <text style="fill: #000000;text-anchor:middle;font-size:11.2;font-family:sanserif;font-style:italic;font-weight:normal" x="481.95" y="474.5">(1)</text>
  </g>
  <g>
    <rect style="fill: #ffffff" x="551.25" y="440" width="90.85" height="42"/>
    <rect style="fill: none; fill-opacity:0; stroke-width: 4; stroke: #000000" x="551.25" y="440" width="90.85" height="42"/>
    <text style="fill: #000000;text-anchor:middle;font-size:16;font-family:sanserif;font-style:normal;font-weight:700" x="596.675" y="459">attribute</text>
    <text style="fill: #000000;text-anchor:middle;font-size:11.2;font-family:sanserif;font-style:italic;font-weight:normal" x="596.675" y="474.5">(1)</text>
  </g>
  <g>
    <rect style="fill: #ffffff" x="665.7" y="440" width="50.7" height="42"/>
    <rect style="fill: none; fill-opacity:0; stroke-width: 4; stroke: #000000" x="665.7" y="440" width="50.7" height="42"/>
    <text style="fill: #000000;text-anchor:middle;font-size:16;font-family:sanserif;font-style:normal;font-weight:700" x="691.05" y="459">data</text>
    <text style="fill: #000000;text-anchor:middle;font-size:11.2;font-family:sanserif;font-style:italic;font-weight:normal" x="691.05" y="474.5">(1)</text>
  </g>
  <g>
    <rect style="fill: #ffffff" x="740" y="440" width="70.15" height="42"/>
    <rect style="fill: none; fill-opacity:0; stroke-width: 4; stroke: #000000" x="740" y="440" width="70.15" height="42"/>
    <text style="fill: #000000;text-anchor:middle;font-size:16;font-family:sanserif;font-style:normal;font-weight:700" x="775.075" y="459">source</text>
    <text style="fill: #000000;text-anchor:middle;font-size:11.2;font-family:sanserif;font-style:italic;font-weight:normal" x="775.075" y="474.5">(1)</text>
  </g>
  <g>
    <rect style="fill: #ffffff" x="217.623" y="300" width="70.15" height="42"/>
    <rect style="fill: none; fill-opacity:0; stroke-width: 4; stroke: #000000" x="217.623" y="300" width="70.15" height="42"/>
    <text style="fill: #000000;text-anchor:middle;font-size:16;font-family:sanserif;font-style:normal;font-weight:700" x="252.698" y="319">import</text>
    <text style="fill: #000000;text-anchor:middle;font-size:11.2;font-family:sanserif;font-style:italic;font-weight:normal" x="252.698" y="334.5">(3)</text>
  </g>
  <g>
    <rect style="fill: #ffffff" x="680" y="348.251" width="195.35" height="42"/>
    <rect style="fill: none; fill-opacity:0; stroke-width: 4; stroke: #000000" x="680" y="348.251" width="195.35" height="42"/>
    <text style="fill: #000000;text-anchor:middle;font-size:16;font-family:sanserif;font-style:normal;font-weight:700" x="777.675" y="367.251">anonymousPrimitive</text>
    <text style="fill: #000000;text-anchor:middle;font-size:11.2;font-family:sanserif;font-style:italic;font-weight:normal" x="777.675" y="382.751">(2)</text>
  </g>
  <g>
    <rect style="fill: #ffffff" x="680" y="280" width="208.95" height="42"/>
    <rect style="fill: none; fill-opacity:0; stroke-width: 4; stroke: #000000" x="680" y="280" width="208.95" height="42"/>
    <text style="fill: #000000;text-anchor:middle;font-size:16;font-family:sanserif;font-style:normal;font-weight:700" x="784.475" y="299">anonymousComposite</text>
    <text style="fill: #000000;text-anchor:middle;font-size:11.2;font-family:sanserif;font-style:italic;font-weight:normal" x="784.475" y="314.5">(2)</text>
  </g>
  <g>
    <polyline style="fill: none; fill-opacity:0; stroke-width: 2; stroke-dasharray: 8; stroke: #000000" points="571.729,376.236 571.729,400 775.075,400 775.075,439.004 "/>
    <polygon style="fill: #ffffff" points="579.729,376.236 571.729,360.236 563.729,376.236 "/>
    <polygon style="fill: none; fill-opacity:0; stroke-width: 2; stroke: #000000" points="579.729,376.236 571.729,360.236 563.729,376.236 "/>
  </g>
  <g>
    <polyline style="fill: none; fill-opacity:0; stroke-width: 2; stroke-dasharray: 8; stroke: #000000" points="543.107,376.236 543.107,410 691.05,410 691.05,440 "/>
    <polygon style="fill: #ffffff" points="551.107,376.236 543.107,360.236 535.107,376.236 "/>
    <polygon style="fill: none; fill-opacity:0; stroke-width: 2; stroke: #000000" points="551.107,376.236 543.107,360.236 535.107,376.236 "/>
  </g>
  <line style="fill: none; fill-opacity:0; stroke-width: 2; stroke: #000000" x1="400" y1="358" x2="600.35" y2="358"/>
  <g>
    <polyline style="fill: none; fill-opacity:0; stroke-width: 2; stroke-dasharray: 8; stroke: #000000" points="514.486,376.236 514.486,420 596.675,420 596.675,440 "/>
    <polygon style="fill: #ffffff" points="522.486,376.236 514.486,360.236 506.486,376.236 "/>
    <polygon style="fill: none; fill-opacity:0; stroke-width: 2; stroke: #000000" points="522.486,376.236 514.486,360.236 506.486,376.236 "/>
  </g>
  <g>
    <polyline style="fill: none; fill-opacity:0; stroke-width: 2; stroke-dasharray: 8; stroke: #000000" points="485.864,376.236 485.864,399 481.95,399 481.95,440 "/>
    <polygon style="fill: #ffffff" points="493.864,376.236 485.864,360.236 477.864,376.236 "/>
    <polygon style="fill: none; fill-opacity:0; stroke-width: 2; stroke: #000000" points="493.864,376.236 485.864,360.236 477.864,376.236 "/>
  </g>
  <g>
    <polyline style="fill: none; fill-opacity:0; stroke-width: 2; stroke-dasharray: 8; stroke: #000000" points="457.243,376.236 457.243,420 373.575,420 373.575,440 "/>
    <polygon style="fill: #ffffff" points="465.243,376.236 457.243,360.236 449.243,376.236 "/>
    <polygon style="fill: none; fill-opacity:0; stroke-width: 2; stroke: #000000" points="465.243,376.236 457.243,360.236 449.243,376.236 "/>
  </g>
  <g>
    <polyline style="fill: none; fill-opacity:0; stroke-width: 2; stroke-dasharray: 8; stroke: #000000" points="428.621,376.236 428.621,399 255.45,399 255.45,440 "/>
    <polygon style="fill: #ffffff" points="436.621,376.236 428.621,360.236 420.621,376.236 "/>
    <polygon style="fill: none; fill-opacity:0; stroke-width: 2; stroke: #000000" points="436.621,376.236 428.621,360.236 420.621,376.236 "/>
  </g>
  <g>
    <polyline style="fill: none; fill-opacity:0; stroke-width: 2; stroke-dasharray: 8; stroke: #000000" points="381.764,321 287.773,321 287.773,321 "/>
    <polygon style="fill: #ffffff" points="381.764,329 397.764,321 381.764,313 "/>
    <polygon style="fill: none; fill-opacity:0; stroke-width: 2; stroke: #000000" points="381.764,329 397.764,321 381.764,313 "/>
  </g>
  <line style="fill: none; fill-opacity:0; stroke-width: 2; stroke: #000000" x1="400" y1="300" x2="600.35" y2="300"/>
  <g>
    <polyline style="fill: none; fill-opacity:0; stroke-width: 2; stroke-dasharray: 8; stroke: #000000" points="450.087,281.764 450.087,271 362.825,271 362.825,242 "/>
    <polygon style="fill: #ffffff" points="442.088,281.764 450.087,297.764 458.087,281.764 "/>
    <polygon style="fill: none; fill-opacity:0; stroke-width: 2; stroke: #000000" points="442.088,281.764 450.087,297.764 458.087,281.764 "/>
  </g>
  <g>
    <polyline style="fill: none; fill-opacity:0; stroke-width: 2; stroke-dasharray: 8; stroke: #000000" points="500.175,281.764 500.175,271.503 505.2,271.503 505.2,243.005 "/>
    <polygon style="fill: #ffffff" points="492.175,281.764 500.175,297.764 508.175,281.764 "/>
    <polygon style="fill: none; fill-opacity:0; stroke-width: 2; stroke: #000000" points="492.175,281.764 500.175,297.764 508.175,281.764 "/>
  </g>
  <g>
    <polyline style="fill: none; fill-opacity:0; stroke-width: 2; stroke-dasharray: 8; stroke: #000000" points="550.262,281.764 550.262,271 657,271 657,242 "/>
    <polygon style="fill: #ffffff" points="542.263,281.764 550.262,297.764 558.262,281.764 "/>
    <polygon style="fill: none; fill-opacity:0; stroke-width: 2; stroke: #000000" points="542.263,281.764 550.262,297.764 558.262,281.764 "/>
  </g>
  <line style="fill: none; fill-opacity:0; stroke-width: 2; stroke: #000000" x1="600.35" y1="300" x2="600.35" y2="358"/>
  <g>
    <polyline style="fill: none; fill-opacity:0; stroke-width: 2; stroke-dasharray: 8; stroke: #000000" points="618.586,319.333 640.175,319.333 640.175,301 680,301 "/>
    <polygon style="fill: #ffffff" points="618.586,311.333 602.586,319.333 618.586,327.333 "/>
    <polygon style="fill: none; fill-opacity:0; stroke-width: 2; stroke: #000000" points="618.586,311.333 602.586,319.333 618.586,327.333 "/>
  </g>
  <g>
    <polyline style="fill: none; fill-opacity:0; stroke-width: 2; stroke-dasharray: 8; stroke: #000000" points="618.586,338.667 640.175,338.667 640.175,369.251 680,369.251 "/>
    <polygon style="fill: #ffffff" points="618.586,330.667 602.586,338.667 618.586,346.667 "/>
    <polygon style="fill: none; fill-opacity:0; stroke-width: 2; stroke: #000000" points="618.586,330.667 602.586,338.667 618.586,346.667 "/>
  </g>
</svg>
