<?xml version="1.0" encoding="UTF-8" standalone="no"?>
<!DOCTYPE svg PUBLIC "-//W3C//DTD SVG 1.0//EN" "http://www.w3.org/TR/2001/PR-SVG-20010719/DTD/svg10.dtd">
<svg width="16cm" height="18cm" viewBox="39 -21 314 350" xmlns="http://www.w3.org/2000/svg" xmlns:xlink="http://www.w3.org/1999/xlink">
  <g>
    <polyline style="fill: none; fill-opacity:0; stroke-width: 2; stroke: #000000" points="199.7,150.177 199.7,178.991 199.7,178.991 "/>
    <polygon style="fill: #ffffff" points="199.7,125.006 204.5,139.006 199.7,153.006 194.9,139.006 "/>
    <polygon style="fill: none; fill-opacity:0; stroke-width: 2; stroke: #000000" points="199.7,125.006 204.5,139.006 199.7,153.006 194.9,139.006 "/>
    <text style="fill: #000000;text-anchor:start;font-size:12.7998;font-family:monospace;font-style:normal;font-weight:normal" x="201.7" y="151.998"></text>
    <text style="fill: #000000;text-anchor:start;font-size:12.7998;font-family:monospace;font-style:normal;font-weight:normal" x="210.7" y="137.006">1</text>
    <text style="fill: #000000;text-anchor:start;font-size:12.7998;font-family:monospace;font-style:normal;font-weight:normal" x="203.7" y="174.991">0..*</text>
  </g>
  <g>
    <rect style="fill: #ffffff" x="120" y="80" width="159.4" height="28"/>
    <rect style="fill: none; fill-opacity:0; stroke-width: 2; stroke: #000000" x="120" y="80" width="159.4" height="28"/>
    <text style="fill: #000000;text-anchor:middle;font-size:16;font-family:sanserif;font-style:italic;font-weight:700" x="199.7" y="99">ImportContainer</text>
    <rect style="fill: #ffffff" x="120" y="108" width="159.4" height="8"/>
    <rect style="fill: none; fill-opacity:0; stroke-width: 2; stroke: #000000" x="120" y="108" width="159.4" height="8"/>
    <rect style="fill: #ffffff" x="120" y="116" width="159.4" height="8"/>
    <rect style="fill: none; fill-opacity:0; stroke-width: 2; stroke: #000000" x="120" y="116" width="159.4" height="8"/>
  </g>
  <g>
    <rect style="fill: #ffffff" x="148.5" y="180" width="102.4" height="28"/>
    <rect style="fill: none; fill-opacity:0; stroke-width: 2; stroke: #000000" x="148.5" y="180" width="102.4" height="28"/>
    <text style="fill: #000000;text-anchor:middle;font-size:16;font-family:sanserif;font-style:italic;font-weight:700" x="199.7" y="199">import</text>
    <rect style="fill: #ffffff" x="148.5" y="208" width="102.4" height="36"/>
    <rect style="fill: none; fill-opacity:0; stroke-width: 2; stroke: #000000" x="148.5" y="208" width="102.4" height="36"/>
    <text style="fill: #000000;text-anchor:start;font-size:12.8;font-family:monospace;font-style:normal;font-weight:normal" x="151.5" y="222">+packageName</text>
    <text style="fill: #000000;text-anchor:start;font-size:12.8;font-family:monospace;font-style:normal;font-weight:normal" x="151.5" y="238">+simpleName</text>
    <rect style="fill: #ffffff" x="148.5" y="244" width="102.4" height="8"/>
    <rect style="fill: none; fill-opacity:0; stroke-width: 2; stroke: #000000" x="148.5" y="244" width="102.4" height="8"/>
  </g>
  <g>
    <rect style="fill: #ffffff" x="260" y="-20" width="91.45" height="42"/>
    <rect style="fill: none; fill-opacity:0; stroke-width: 4; stroke: #000000" x="260" y="-20" width="91.45" height="42"/>
    <text style="fill: #000000;text-anchor:middle;font-size:16;font-family:sanserif;font-style:normal;font-weight:700" x="305.725" y="-1">primitive</text>
    <text style="fill: #000000;text-anchor:middle;font-size:11.2;font-family:sanserif;font-style:italic;font-weight:normal" x="305.725" y="14.5">(1)</text>
  </g>
  <g>
    <rect style="fill: #ffffff" x="40" y="-20" width="103.1" height="42"/>
    <rect style="fill: none; fill-opacity:0; stroke-width: 4; stroke: #000000" x="40" y="-20" width="103.1" height="42"/>
    <text style="fill: #000000;text-anchor:middle;font-size:16;font-family:sanserif;font-style:normal;font-weight:700" x="91.55" y="-1">composite</text>
    <text style="fill: #000000;text-anchor:middle;font-size:11.2;font-family:sanserif;font-style:italic;font-weight:normal" x="91.55" y="14.5">(1)</text>
  </g>
  <g>
    <rect style="fill: #ffffff" x="174.5" y="-20" width="50.4" height="42"/>
    <rect style="fill: none; fill-opacity:0; stroke-width: 4; stroke: #000000" x="174.5" y="-20" width="50.4" height="42"/>
    <text style="fill: #000000;text-anchor:middle;font-size:16;font-family:sanserif;font-style:normal;font-weight:700" x="199.7" y="-1">type</text>
    <text style="fill: #000000;text-anchor:middle;font-size:11.2;font-family:sanserif;font-style:italic;font-weight:normal" x="199.7" y="14.5">(1)</text>
  </g>
  <line style="fill: none; fill-opacity:0; stroke-width: 2; stroke: #000000" x1="120" y1="80" x2="279.4" y2="80"/>
  <g>
    <polyline style="fill: none; fill-opacity:0; stroke-width: 2; stroke-dasharray: 8; stroke: #000000" points="159.85,61.7639 159.85,51 91.55,51 91.55,22 "/>
    <polygon style="fill: #ffffff" points="151.85,61.7639 159.85,77.7639 167.85,61.7639 "/>
    <polygon style="fill: none; fill-opacity:0; stroke-width: 2; stroke: #000000" points="151.85,61.7639 159.85,77.7639 167.85,61.7639 "/>
  </g>
  <g>
    <polyline style="fill: none; fill-opacity:0; stroke-width: 2; stroke-dasharray: 8; stroke: #000000" points="199.7,61.7639 199.7,22 199.7,22 "/>
    <polygon style="fill: #ffffff" points="191.7,61.7639 199.7,77.7639 207.7,61.7639 "/>
    <polygon style="fill: none; fill-opacity:0; stroke-width: 2; stroke: #000000" points="191.7,61.7639 199.7,77.7639 207.7,61.7639 "/>
  </g>
  <g>
    <polyline style="fill: none; fill-opacity:0; stroke-width: 2; stroke-dasharray: 8; stroke: #000000" points="239.55,61.7639 239.55,51 305.725,51 305.725,22 "/>
    <polygon style="fill: #ffffff" points="231.55,61.7639 239.55,77.7639 247.55,61.7639 "/>
    <polygon style="fill: none; fill-opacity:0; stroke-width: 2; stroke: #000000" points="231.55,61.7639 239.55,77.7639 247.55,61.7639 "/>
  </g>
  <g>
    <rect style="fill: #ffffff" x="164.625" y="300" width="70.15" height="28"/>
    <rect style="fill: none; fill-opacity:0; stroke-width: 4; stroke: #000000" x="164.625" y="300" width="70.15" height="28"/>
    <text style="fill: #000000;text-anchor:middle;font-size:16;font-family:sanserif;font-style:normal;font-weight:700" x="199.7" y="319">import</text>
  </g>
  <g>
    <polyline style="fill: none; fill-opacity:0; stroke-width: 2; stroke-dasharray: 8; stroke: #000000" points="199.7,271.245 199.7,298.993 199.7,298.993 "/>
    <polygon style="fill: #ffffff" points="207.7,271.245 199.7,255.245 191.7,271.245 "/>
    <polygon style="fill: none; fill-opacity:0; stroke-width: 2; stroke: #000000" points="207.7,271.245 199.7,255.245 191.7,271.245 "/>
  </g>
</svg>
