<?xml version="1.0" encoding="UTF-8" standalone="no"?>
<!DOCTYPE svg PUBLIC "-//W3C//DTD SVG 1.0//EN" "http://www.w3.org/TR/2001/PR-SVG-20010719/DTD/svg10.dtd">
<svg width="55cm" height="45cm" viewBox="-281 -141 1085 900" xmlns="http://www.w3.org/2000/svg" xmlns:xlink="http://www.w3.org/1999/xlink">
  <g>
    <rect style="fill: #ffffff" x="182.275" y="-20" width="143.3" height="28"/>
    <rect style="fill: none; fill-opacity:0; stroke-width: 2; stroke: #000000" x="182.275" y="-20" width="143.3" height="28"/>
    <text style="fill: #000000;text-anchor:middle;font-size:16;font-family:sanserif;font-style:italic;font-weight:700" x="253.925" y="-1">MindDefinition</text>
    <rect style="fill: #ffffff" x="182.275" y="8" width="143.3" height="8"/>
    <rect style="fill: none; fill-opacity:0; stroke-width: 2; stroke: #000000" x="182.275" y="8" width="143.3" height="8"/>
    <rect style="fill: #ffffff" x="182.275" y="16" width="143.3" height="8"/>
    <rect style="fill: none; fill-opacity:0; stroke-width: 2; stroke: #000000" x="182.275" y="16" width="143.3" height="8"/>
  </g>
  <g>
    <polyline style="fill: none; fill-opacity:0; stroke-width: 2; stroke: #000000" points="254.2,370.177 254.2,381.999 253.925,381.999 253.925,418.993 "/>
    <polygon style="fill: #ffffff" points="254.2,345.006 259,359.006 254.2,373.006 249.4,359.006 "/>
    <polygon style="fill: none; fill-opacity:0; stroke-width: 2; stroke: #000000" points="254.2,345.006 259,359.006 254.2,373.006 249.4,359.006 "/>
    <text style="fill: #000000;text-anchor:middle;font-size:12.7998;font-family:monospace;font-style:normal;font-weight:normal" x="254.062" y="377.999"></text>
    <text style="fill: #000000;text-anchor:start;font-size:12.7998;font-family:monospace;font-style:normal;font-weight:normal" x="265.2" y="357.006">1</text>
    <text style="fill: #000000;text-anchor:start;font-size:12.7998;font-family:monospace;font-style:normal;font-weight:normal" x="257.925" y="414.993">0..*</text>
  </g>
  <g>
    <polyline style="fill: none; fill-opacity:0; stroke-width: 2; stroke: #000000" points="452.513,369.172 452.513,420 452.513,420 "/>
    <polygon style="fill: #ffffff" points="452.513,344 457.312,358 452.513,372 447.713,358 "/>
    <polygon style="fill: none; fill-opacity:0; stroke-width: 2; stroke: #000000" points="452.513,344 457.312,358 452.513,372 447.713,358 "/>
    <text style="fill: #000000;text-anchor:start;font-size:12.7998;font-family:monospace;font-style:normal;font-weight:normal" x="454.513" y="378"></text>
    <text style="fill: #000000;text-anchor:start;font-size:12.7998;font-family:monospace;font-style:normal;font-weight:normal" x="463.513" y="356">1</text>
    <text style="fill: #000000;text-anchor:start;font-size:12.7998;font-family:monospace;font-style:normal;font-weight:normal" x="456.513" y="416">0..*</text>
  </g>
  <g>
    <polyline style="fill: none; fill-opacity:0; stroke-width: 2; stroke: #000000" points="721.4,369.172 721.4,382 736.075,382 736.075,420 "/>
    <polygon style="fill: #ffffff" points="721.4,344 726.2,358 721.4,372 716.6,358 "/>
    <polygon style="fill: none; fill-opacity:0; stroke-width: 2; stroke: #000000" points="721.4,344 726.2,358 721.4,372 716.6,358 "/>
    <text style="fill: #000000;text-anchor:middle;font-size:12.7998;font-family:monospace;font-style:normal;font-weight:normal" x="728.737" y="378"></text>
    <text style="fill: #000000;text-anchor:start;font-size:12.7998;font-family:monospace;font-style:normal;font-weight:normal" x="732.4" y="356"> sources</text>
    <text style="fill: #000000;text-anchor:start;font-size:12.7998;font-family:monospace;font-style:normal;font-weight:normal" x="732.4" y="372">1</text>
    <text style="fill: #000000;text-anchor:start;font-size:12.7998;font-family:monospace;font-style:normal;font-weight:normal" x="740.075" y="416">0..*</text>
  </g>
  <g>
    <polyline style="fill: none; fill-opacity:0; stroke-width: 2; stroke: #000000" points="640.7,369.172 640.7,382 608.1,382 608.1,420 "/>
    <polygon style="fill: #ffffff" points="640.7,344 645.5,358 640.7,372 635.9,358 "/>
    <polygon style="fill: none; fill-opacity:0; stroke-width: 2; stroke: #000000" points="640.7,344 645.5,358 640.7,372 635.9,358 "/>
    <text style="fill: #000000;text-anchor:middle;font-size:12.7998;font-family:monospace;font-style:normal;font-weight:normal" x="624.4" y="378"></text>
    <text style="fill: #000000;text-anchor:start;font-size:12.7998;font-family:monospace;font-style:normal;font-weight:normal" x="651.7" y="356"> data</text>
    <text style="fill: #000000;text-anchor:start;font-size:12.7998;font-family:monospace;font-style:normal;font-weight:normal" x="651.7" y="372">1</text>
    <text style="fill: #000000;text-anchor:start;font-size:12.7998;font-family:monospace;font-style:normal;font-weight:normal" x="612.1" y="416">0..1</text>
  </g>
  <g>
    <polyline style="fill: none; fill-opacity:0; stroke-width: 2; stroke: #000000" points="-139.15,370.177 -139.15,381.999 -139.3,381.999 -139.3,418.993 "/>
    <polygon style="fill: #ffffff" points="-139.15,345.006 -134.35,359.006 -139.15,373.006 -143.95,359.006 "/>
    <polygon style="fill: none; fill-opacity:0; stroke-width: 2; stroke: #000000" points="-139.15,345.006 -134.35,359.006 -139.15,373.006 -143.95,359.006 "/>
    <text style="fill: #000000;text-anchor:middle;font-size:12.7998;font-family:monospace;font-style:normal;font-weight:normal" x="-139.225" y="377.999"></text>
    <text style="fill: #000000;text-anchor:start;font-size:12.7998;font-family:monospace;font-style:normal;font-weight:normal" x="-128.15" y="357.006">1</text>
    <text style="fill: #000000;text-anchor:start;font-size:12.7998;font-family:monospace;font-style:normal;font-weight:normal" x="-135.3" y="414.993">0..*</text>
  </g>
  <g>
    <rect style="fill: #ffffff" x="-240" y="-20" width="278.5" height="28"/>
    <rect style="fill: none; fill-opacity:0; stroke-width: 2; stroke: #000000" x="-240" y="-20" width="278.5" height="28"/>
    <text style="fill: #000000;text-anchor:middle;font-size:16;font-family:sanserif;font-style:italic;font-weight:700" x="-100.75" y="-1">DefinitionReferenceContainer</text>
    <rect style="fill: #ffffff" x="-240" y="8" width="278.5" height="8"/>
    <rect style="fill: none; fill-opacity:0; stroke-width: 2; stroke: #000000" x="-240" y="8" width="278.5" height="8"/>
    <rect style="fill: #ffffff" x="-240" y="16" width="278.5" height="8"/>
    <rect style="fill: none; fill-opacity:0; stroke-width: 2; stroke: #000000" x="-240" y="16" width="278.5" height="8"/>
  </g>
  <g>
    <rect style="fill: #ffffff" x="-195.6" y="80" width="189.7" height="28"/>
    <rect style="fill: none; fill-opacity:0; stroke-width: 2; stroke: #000000" x="-195.6" y="80" width="189.7" height="28"/>
    <text style="fill: #000000;text-anchor:middle;font-size:16;font-family:sanserif;font-style:italic;font-weight:700" x="-100.75" y="99">DefinitionReference</text>
    <rect style="fill: #ffffff" x="-195.6" y="108" width="189.7" height="20"/>
    <rect style="fill: none; fill-opacity:0; stroke-width: 2; stroke: #000000" x="-195.6" y="108" width="189.7" height="20"/>
    <text style="fill: #000000;text-anchor:start;font-size:12.8;font-family:monospace;font-style:normal;font-weight:normal" x="-192.6" y="122">+name</text>
    <rect style="fill: #ffffff" x="-195.6" y="128" width="189.7" height="8"/>
    <rect style="fill: none; fill-opacity:0; stroke-width: 2; stroke: #000000" x="-195.6" y="128" width="189.7" height="8"/>
  </g>
  <g>
    <polyline style="fill: none; fill-opacity:0; stroke-width: 2; stroke: #000000" points="-100.75,50.1772 -100.75,78.9929 -100.75,78.9929 "/>
    <polygon style="fill: #ffffff" points="-100.75,25.0056 -95.95,39.0056 -100.75,53.0056 -105.55,39.0056 "/>
    <polygon style="fill: none; fill-opacity:0; stroke-width: 2; stroke: #000000" points="-100.75,25.0056 -95.95,39.0056 -100.75,53.0056 -105.55,39.0056 "/>
    <text style="fill: #000000;text-anchor:start;font-size:12.7998;font-family:monospace;font-style:normal;font-weight:normal" x="-98.75" y="47.9993"></text>
    <text style="fill: #000000;text-anchor:start;font-size:12.7998;font-family:monospace;font-style:normal;font-weight:normal" x="-89.75" y="37.0056">1</text>
    <text style="fill: #000000;text-anchor:start;font-size:12.7998;font-family:monospace;font-style:normal;font-weight:normal" x="-96.75" y="74.9929">0..*</text>
  </g>
  <g>
    <polyline style="fill: none; fill-opacity:0; stroke-width: 2; stroke: #000000" points="-195.875,434 -280,434 -280,108 -201.072,108 "/>
    <polyline style="fill: none; fill-opacity:0; stroke-width: 2; stroke: #000000" points="-214.836,116 -198.836,108 -214.836,100 "/>
    <text style="fill: #000000;text-anchor:start;font-size:12.7998;font-family:monospace;font-style:normal;font-weight:normal" x="-278" y="267"></text>
    <text style="fill: #000000;text-anchor:end;font-size:12.7998;font-family:monospace;font-style:normal;font-weight:normal" x="-199.875" y="422"> reference</text>
    <text style="fill: #000000;text-anchor:end;font-size:12.7998;font-family:monospace;font-style:normal;font-weight:normal" x="-216.6" y="104">1</text>
  </g>
  <g>
    <rect style="fill: #ffffff" x="360" y="168.73" width="91.45" height="28"/>
    <rect style="fill: none; fill-opacity:0; stroke-width: 4; stroke: #000000" x="360" y="168.73" width="91.45" height="28"/>
    <text style="fill: #000000;text-anchor:middle;font-size:16;font-family:sanserif;font-style:normal;font-weight:700" x="405.725" y="187.73">primitive</text>
  </g>
  <g>
    <rect style="fill: #ffffff" x="60" y="168.73" width="103.1" height="28"/>
    <rect style="fill: none; fill-opacity:0; stroke-width: 4; stroke: #000000" x="60" y="168.73" width="103.1" height="28"/>
    <text style="fill: #000000;text-anchor:middle;font-size:16;font-family:sanserif;font-style:normal;font-weight:700" x="111.55" y="187.73">composite</text>
  </g>
  <line style="fill: none; fill-opacity:0; stroke-width: 2; stroke: #000000" x1="560" y1="344" x2="802.1" y2="344"/>
  <g>
    <polyline style="fill: none; fill-opacity:0; stroke-width: 2; stroke: #000000" points="157.103,-6 38.5,-6 38.5,-6 "/>
    <polygon style="fill: #ffffff" points="182.275,-6 168.275,-1.2 154.275,-6 168.275,-10.8 "/>
    <polygon style="fill: none; fill-opacity:0; stroke-width: 2; stroke: #000000" points="182.275,-6 168.275,-1.2 154.275,-6 168.275,-10.8 "/>
    <text style="fill: #000000;text-anchor:middle;font-size:12.7998;font-family:monospace;font-style:normal;font-weight:normal" x="110.388" y="-10">extends</text>
    <text style="fill: #000000;text-anchor:end;font-size:12.7998;font-family:monospace;font-style:normal;font-weight:normal" x="150.275" y="-10">1</text>
    <text style="fill: #000000;text-anchor:start;font-size:12.7998;font-family:monospace;font-style:normal;font-weight:normal" x="42.5" y="-10">0..1</text>
  </g>
  <line style="fill: none; fill-opacity:0; stroke-width: 2; stroke: #000000" x1="60" y1="196.73" x2="163.1" y2="196.73"/>
  <line style="fill: none; fill-opacity:0; stroke-width: 2; stroke: #000000" x1="163.875" y1="300" x2="344.525" y2="300"/>
  <line style="fill: none; fill-opacity:0; stroke-width: 2; stroke: #000000" x1="360" y1="196.73" x2="451.45" y2="196.73"/>
  <line style="fill: none; fill-opacity:0; stroke-width: 2; stroke: #000000" x1="182.275" y1="24" x2="325.575" y2="24"/>
  <g>
    <rect style="fill: #ffffff" x="228.725" y="168.73" width="50.4" height="28"/>
    <rect style="fill: none; fill-opacity:0; stroke-width: 4; stroke: #000000" x="228.725" y="168.73" width="50.4" height="28"/>
    <text style="fill: #000000;text-anchor:middle;font-size:16;font-family:sanserif;font-style:normal;font-weight:700" x="253.925" y="187.73">type</text>
  </g>
  <g>
    <polyline style="fill: none; fill-opacity:0; stroke-width: 2; stroke: #000000" points="62.9125,369.172 62.9125,382 62.6375,382 62.6375,420 "/>
    <polygon style="fill: #ffffff" points="62.9125,344 67.7125,358 62.9125,372 58.1125,358 "/>
    <polygon style="fill: none; fill-opacity:0; stroke-width: 2; stroke: #000000" points="62.9125,344 67.7125,358 62.9125,372 58.1125,358 "/>
    <text style="fill: #000000;text-anchor:middle;font-size:12.7998;font-family:monospace;font-style:normal;font-weight:normal" x="62.775" y="382"></text>
    <text style="fill: #000000;text-anchor:start;font-size:12.7998;font-family:monospace;font-style:normal;font-weight:normal" x="73.9125" y="356">1</text>
    <text style="fill: #000000;text-anchor:start;font-size:12.7998;font-family:monospace;font-style:normal;font-weight:normal" x="66.6375" y="416">0..*</text>
  </g>
  <g>
    <rect style="fill: #ffffff" x="163.875" y="300" width="180.65" height="28"/>
    <rect style="fill: none; fill-opacity:0; stroke-width: 2; stroke: #000000" x="163.875" y="300" width="180.65" height="28"/>
    <text style="fill: #000000;text-anchor:middle;font-size:16;font-family:sanserif;font-style:italic;font-weight:700" x="254.2" y="319">InterfaceContainer</text>
    <rect style="fill: #ffffff" x="163.875" y="328" width="180.65" height="8"/>
    <rect style="fill: none; fill-opacity:0; stroke-width: 2; stroke: #000000" x="163.875" y="328" width="180.65" height="8"/>
    <rect style="fill: #ffffff" x="163.875" y="336" width="180.65" height="8"/>
    <rect style="fill: none; fill-opacity:0; stroke-width: 2; stroke: #000000" x="163.875" y="336" width="180.65" height="8"/>
  </g>
  <g>
    <rect style="fill: #ffffff" x="185.875" y="420" width="136.1" height="28"/>
    <rect style="fill: none; fill-opacity:0; stroke-width: 2; stroke: #000000" x="185.875" y="420" width="136.1" height="28"/>
    <text style="fill: #000000;text-anchor:middle;font-size:16;font-family:sanserif;font-style:italic;font-weight:700" x="253.925" y="439">MindInterface</text>
    <rect style="fill: #ffffff" x="185.875" y="448" width="136.1" height="20"/>
    <rect style="fill: none; fill-opacity:0; stroke-width: 2; stroke: #000000" x="185.875" y="448" width="136.1" height="20"/>
    <text style="fill: #000000;text-anchor:start;font-size:12.8;font-family:monospace;font-style:normal;font-weight:normal" x="188.875" y="462">+numberOfElement</text>
    <rect style="fill: #ffffff" x="185.875" y="468" width="136.1" height="8"/>
    <rect style="fill: none; fill-opacity:0; stroke-width: 2; stroke: #000000" x="185.875" y="468" width="136.1" height="8"/>
  </g>
  <g>
    <rect style="fill: #ffffff" x="-20.9375" y="300" width="167.7" height="28"/>
    <rect style="fill: none; fill-opacity:0; stroke-width: 2; stroke: #000000" x="-20.9375" y="300" width="167.7" height="28"/>
    <text style="fill: #000000;text-anchor:middle;font-size:16;font-family:sanserif;font-style:italic;font-weight:700" x="62.9125" y="319">BindingContainer</text>
    <rect style="fill: #ffffff" x="-20.9375" y="328" width="167.7" height="8"/>
    <rect style="fill: none; fill-opacity:0; stroke-width: 2; stroke: #000000" x="-20.9375" y="328" width="167.7" height="8"/>
    <rect style="fill: #ffffff" x="-20.9375" y="336" width="167.7" height="8"/>
    <rect style="fill: none; fill-opacity:0; stroke-width: 2; stroke: #000000" x="-20.9375" y="336" width="167.7" height="8"/>
  </g>
  <g>
    <rect style="fill: #ffffff" x="-19.3625" y="420" width="164" height="28"/>
    <rect style="fill: none; fill-opacity:0; stroke-width: 2; stroke: #000000" x="-19.3625" y="420" width="164" height="28"/>
    <text style="fill: #000000;text-anchor:middle;font-size:16;font-family:sanserif;font-style:italic;font-weight:700" x="62.6375" y="439">Binding</text>
    <rect style="fill: #ffffff" x="-19.3625" y="448" width="164" height="100"/>
    <rect style="fill: none; fill-opacity:0; stroke-width: 2; stroke: #000000" x="-19.3625" y="448" width="164" height="100"/>
    <text style="fill: #000000;text-anchor:start;font-size:12.8;font-family:monospace;font-style:normal;font-weight:normal" x="-16.3625" y="462">+fromComponent</text>
    <text style="fill: #000000;text-anchor:start;font-size:12.8;font-family:monospace;font-style:normal;font-weight:normal" x="-16.3625" y="478">+fromInterface</text>
    <text style="fill: #000000;text-anchor:start;font-size:12.8;font-family:monospace;font-style:normal;font-weight:normal" x="-16.3625" y="494">+fromInterfaceNumber</text>
    <text style="fill: #000000;text-anchor:start;font-size:12.8;font-family:monospace;font-style:normal;font-weight:normal" x="-16.3625" y="510">+toComponent</text>
    <text style="fill: #000000;text-anchor:start;font-size:12.8;font-family:monospace;font-style:normal;font-weight:normal" x="-16.3625" y="526">+toInterface</text>
    <text style="fill: #000000;text-anchor:start;font-size:12.8;font-family:monospace;font-style:normal;font-weight:normal" x="-16.3625" y="542">+toInterfaceNumber</text>
    <rect style="fill: #ffffff" x="-19.3625" y="548" width="164" height="8"/>
    <rect style="fill: none; fill-opacity:0; stroke-width: 2; stroke: #000000" x="-19.3625" y="548" width="164" height="8"/>
  </g>
  <g>
    <rect style="fill: #ffffff" x="-240" y="300" width="201.7" height="28"/>
    <rect style="fill: none; fill-opacity:0; stroke-width: 2; stroke: #000000" x="-240" y="300" width="201.7" height="28"/>
    <text style="fill: #000000;text-anchor:middle;font-size:16;font-family:sanserif;font-style:italic;font-weight:700" x="-139.15" y="319">ComponentContainer</text>
    <rect style="fill: #ffffff" x="-240" y="328" width="201.7" height="8"/>
    <rect style="fill: none; fill-opacity:0; stroke-width: 2; stroke: #000000" x="-240" y="328" width="201.7" height="8"/>
    <rect style="fill: #ffffff" x="-240" y="336" width="201.7" height="8"/>
    <rect style="fill: none; fill-opacity:0; stroke-width: 2; stroke: #000000" x="-240" y="336" width="201.7" height="8"/>
  </g>
  <g>
    <rect style="fill: #ffffff" x="-195.875" y="420" width="113.15" height="28"/>
    <rect style="fill: none; fill-opacity:0; stroke-width: 2; stroke: #000000" x="-195.875" y="420" width="113.15" height="28"/>
    <text style="fill: #000000;text-anchor:middle;font-size:16;font-family:sanserif;font-style:italic;font-weight:700" x="-139.3" y="439">Component</text>
    <rect style="fill: #ffffff" x="-195.875" y="448" width="113.15" height="20"/>
    <rect style="fill: none; fill-opacity:0; stroke-width: 2; stroke: #000000" x="-195.875" y="448" width="113.15" height="20"/>
    <text style="fill: #000000;text-anchor:start;font-size:12.8;font-family:monospace;font-style:normal;font-weight:normal" x="-192.875" y="462">+name</text>
    <rect style="fill: #ffffff" x="-195.875" y="468" width="113.15" height="8"/>
    <rect style="fill: none; fill-opacity:0; stroke-width: 2; stroke: #000000" x="-195.875" y="468" width="113.15" height="8"/>
  </g>
  <g>
    <rect style="fill: #ffffff" x="361.638" y="300" width="181.75" height="28"/>
    <rect style="fill: none; fill-opacity:0; stroke-width: 2; stroke: #000000" x="361.638" y="300" width="181.75" height="28"/>
    <text style="fill: #000000;text-anchor:middle;font-size:16;font-family:sanserif;font-style:italic;font-weight:700" x="452.513" y="319">AttributeContainer</text>
    <rect style="fill: #ffffff" x="361.638" y="328" width="181.75" height="8"/>
    <rect style="fill: none; fill-opacity:0; stroke-width: 2; stroke: #000000" x="361.638" y="328" width="181.75" height="8"/>
    <rect style="fill: #ffffff" x="361.638" y="336" width="181.75" height="8"/>
    <rect style="fill: none; fill-opacity:0; stroke-width: 2; stroke: #000000" x="361.638" y="336" width="181.75" height="8"/>
  </g>
  <g>
    <rect style="fill: #ffffff" x="406.488" y="420" width="92.05" height="28"/>
    <rect style="fill: none; fill-opacity:0; stroke-width: 2; stroke: #000000" x="406.488" y="420" width="92.05" height="28"/>
    <text style="fill: #000000;text-anchor:middle;font-size:16;font-family:sanserif;font-style:italic;font-weight:700" x="452.513" y="439">Attribute</text>
    <rect style="fill: #ffffff" x="406.488" y="448" width="92.05" height="36"/>
    <rect style="fill: none; fill-opacity:0; stroke-width: 2; stroke: #000000" x="406.488" y="448" width="92.05" height="36"/>
    <text style="fill: #000000;text-anchor:start;font-size:12.8;font-family:monospace;font-style:normal;font-weight:normal" x="409.488" y="462">+name</text>
    <text style="fill: #000000;text-anchor:start;font-size:12.8;font-family:monospace;font-style:normal;font-weight:normal" x="409.488" y="478">+type</text>
    <rect style="fill: #ffffff" x="406.488" y="484" width="92.05" height="8"/>
    <rect style="fill: none; fill-opacity:0; stroke-width: 2; stroke: #000000" x="406.488" y="484" width="92.05" height="8"/>
  </g>
  <g>
    <rect style="fill: #ffffff" x="560" y="300" width="242.1" height="28"/>
    <rect style="fill: none; fill-opacity:0; stroke-width: 2; stroke: #000000" x="560" y="300" width="242.1" height="28"/>
    <text style="fill: #000000;text-anchor:middle;font-size:16;font-family:sanserif;font-style:italic;font-weight:700" x="681.05" y="319">ImplementationContainer</text>
    <rect style="fill: #ffffff" x="560" y="328" width="242.1" height="8"/>
    <rect style="fill: none; fill-opacity:0; stroke-width: 2; stroke: #000000" x="560" y="328" width="242.1" height="8"/>
    <rect style="fill: #ffffff" x="560" y="336" width="242.1" height="8"/>
    <rect style="fill: none; fill-opacity:0; stroke-width: 2; stroke: #000000" x="560" y="336" width="242.1" height="8"/>
  </g>
  <g>
    <rect style="fill: #ffffff" x="700" y="420" width="72.15" height="28"/>
    <rect style="fill: none; fill-opacity:0; stroke-width: 2; stroke: #000000" x="700" y="420" width="72.15" height="28"/>
    <text style="fill: #000000;text-anchor:middle;font-size:16;font-family:sanserif;font-style:italic;font-weight:700" x="736.075" y="439">Source</text>
    <rect style="fill: #ffffff" x="700" y="448" width="72.15" height="36"/>
    <rect style="fill: none; fill-opacity:0; stroke-width: 2; stroke: #000000" x="700" y="448" width="72.15" height="36"/>
    <text style="fill: #000000;text-anchor:start;font-size:12.8;font-family:monospace;font-style:normal;font-weight:normal" x="703" y="462">+path</text>
    <text style="fill: #000000;text-anchor:start;font-size:12.8;font-family:monospace;font-style:normal;font-weight:normal" x="703" y="478">+cCode</text>
    <rect style="fill: #ffffff" x="700" y="484" width="72.15" height="8"/>
    <rect style="fill: none; fill-opacity:0; stroke-width: 2; stroke: #000000" x="700" y="484" width="72.15" height="8"/>
  </g>
  <g>
    <rect style="fill: #ffffff" x="580" y="420" width="56.2" height="28"/>
    <rect style="fill: none; fill-opacity:0; stroke-width: 2; stroke: #000000" x="580" y="420" width="56.2" height="28"/>
    <text style="fill: #000000;text-anchor:middle;font-size:16;font-family:sanserif;font-style:italic;font-weight:700" x="608.1" y="439">Data</text>
    <rect style="fill: #ffffff" x="580" y="448" width="56.2" height="36"/>
    <rect style="fill: none; fill-opacity:0; stroke-width: 2; stroke: #000000" x="580" y="448" width="56.2" height="36"/>
    <text style="fill: #000000;text-anchor:start;font-size:12.8;font-family:monospace;font-style:normal;font-weight:normal" x="583" y="462">+path</text>
    <text style="fill: #000000;text-anchor:start;font-size:12.8;font-family:monospace;font-style:normal;font-weight:normal" x="583" y="478">+cCode</text>
    <rect style="fill: #ffffff" x="580" y="484" width="56.2" height="8"/>
    <rect style="fill: none; fill-opacity:0; stroke-width: 2; stroke: #000000" x="580" y="484" width="56.2" height="8"/>
  </g>
  <g>
    <rect style="fill: #ffffff" x="300" y="-140" width="99.05" height="42"/>
    <rect style="fill: none; fill-opacity:0; stroke-width: 2; stroke: #000000" x="300" y="-140" width="99.05" height="42"/>
    <text style="fill: #000000;text-anchor:middle;font-size:16;font-family:sanserif;font-style:italic;font-weight:700" x="349.525" y="-121">Definition</text>
    <text style="fill: #000000;text-anchor:middle;font-size:11.2;font-family:sanserif;font-style:italic;font-weight:normal" x="349.525" y="-105.5">(1)</text>
    <rect style="fill: #ffffff" x="300" y="-98" width="99.05" height="20"/>
    <rect style="fill: none; fill-opacity:0; stroke-width: 2; stroke: #000000" x="300" y="-98" width="99.05" height="20"/>
    <text style="fill: #000000;text-anchor:start;font-size:12.8;font-family:monospace;font-style:normal;font-weight:normal" x="303" y="-84">+name</text>
    <rect style="fill: #ffffff" x="300" y="-78" width="99.05" height="8"/>
    <rect style="fill: none; fill-opacity:0; stroke-width: 2; stroke: #000000" x="300" y="-78" width="99.05" height="8"/>
  </g>
  <g>
    <polyline style="fill: none; fill-opacity:0; stroke-width: 2; stroke: #000000" points="333.017,-51.7639 333.017,-45.5028 253.925,-45.5028 253.925,-21.0056 "/>
    <polygon style="fill: #ffffff" points="341.017,-51.7639 333.017,-67.7639 325.017,-51.7639 "/>
    <polygon style="fill: none; fill-opacity:0; stroke-width: 2; stroke: #000000" points="341.017,-51.7639 333.017,-67.7639 325.017,-51.7639 "/>
  </g>
  <g>
    <polyline style="fill: none; fill-opacity:0; stroke-width: 2; stroke-dasharray: 8; stroke: #000000" points="218.1,42.2361 218.1,100 111.55,100 111.55,167.734 "/>
    <polygon style="fill: #ffffff" points="226.1,42.2361 218.1,26.2361 210.1,42.2361 "/>
    <polygon style="fill: none; fill-opacity:0; stroke-width: 2; stroke: #000000" points="226.1,42.2361 218.1,26.2361 210.1,42.2361 "/>
  </g>
  <g>
    <polyline style="fill: none; fill-opacity:0; stroke-width: 2; stroke-dasharray: 8; stroke: #000000" points="253.925,42.2361 253.925,168.73 253.925,168.73 "/>
    <polygon style="fill: #ffffff" points="261.925,42.2361 253.925,26.2361 245.925,42.2361 "/>
    <polygon style="fill: none; fill-opacity:0; stroke-width: 2; stroke: #000000" points="261.925,42.2361 253.925,26.2361 245.925,42.2361 "/>
  </g>
  <g>
    <polyline style="fill: none; fill-opacity:0; stroke-width: 2; stroke-dasharray: 8; stroke: #000000" points="289.75,42.2361 289.75,100 390.483,100 390.483,168.73 "/>
    <polygon style="fill: #ffffff" points="297.75,42.2361 289.75,26.2361 281.75,42.2361 "/>
    <polygon style="fill: none; fill-opacity:0; stroke-width: 2; stroke: #000000" points="297.75,42.2361 289.75,26.2361 281.75,42.2361 "/>
  </g>
  <g>
    <polyline style="fill: none; fill-opacity:0; stroke-width: 2; stroke-dasharray: 8; stroke: #000000" points="299.363,281.764 299.363,248.365 382.862,248.365 382.862,196.73 "/>
    <polygon style="fill: #ffffff" points="291.363,281.764 299.363,297.764 307.363,281.764 "/>
    <polygon style="fill: none; fill-opacity:0; stroke-width: 2; stroke: #000000" points="291.363,281.764 299.363,297.764 307.363,281.764 "/>
  </g>
  <g>
    <polyline style="fill: none; fill-opacity:0; stroke-width: 2; stroke-dasharray: 8; stroke: #000000" points="452.513,280.758 452.513,247.862 405.725,247.862 405.725,196.73 "/>
    <polygon style="fill: #ffffff" points="444.513,280.758 452.513,296.758 460.513,280.758 "/>
    <polygon style="fill: none; fill-opacity:0; stroke-width: 2; stroke: #000000" points="444.513,280.758 452.513,296.758 460.513,280.758 "/>
  </g>
  <g>
    <polyline style="fill: none; fill-opacity:0; stroke-width: 2; stroke-dasharray: 8; stroke: #000000" points="681.05,281.764 681.05,220 428.587,220 428.587,196.73 "/>
    <polygon style="fill: #ffffff" points="673.05,281.764 681.05,297.764 689.05,281.764 "/>
    <polygon style="fill: none; fill-opacity:0; stroke-width: 2; stroke: #000000" points="673.05,281.764 681.05,297.764 689.05,281.764 "/>
  </g>
  <g>
    <polyline style="fill: none; fill-opacity:0; stroke-width: 2; stroke-dasharray: 8; stroke: #000000" points="254.2,281.764 254.2,248.365 253.925,248.365 253.925,196.73 "/>
    <polygon style="fill: #ffffff" points="246.2,281.764 254.2,297.764 262.2,281.764 "/>
    <polygon style="fill: none; fill-opacity:0; stroke-width: 2; stroke: #000000" points="246.2,281.764 254.2,297.764 262.2,281.764 "/>
  </g>
  <g>
    <polyline style="fill: none; fill-opacity:0; stroke-width: 2; stroke-dasharray: 8; stroke: #000000" points="209.037,281.764 209.037,248.365 137.325,248.365 137.325,196.73 "/>
    <polygon style="fill: #ffffff" points="201.037,281.764 209.037,297.764 217.037,281.764 "/>
    <polygon style="fill: none; fill-opacity:0; stroke-width: 2; stroke: #000000" points="201.037,281.764 209.037,297.764 217.037,281.764 "/>
  </g>
  <g>
    <polyline style="fill: none; fill-opacity:0; stroke-width: 2; stroke-dasharray: 8; stroke: #000000" points="62.9125,281.764 62.9125,248.365 111.55,248.365 111.55,196.73 "/>
    <polygon style="fill: #ffffff" points="54.9125,281.764 62.9125,297.764 70.9125,281.764 "/>
    <polygon style="fill: none; fill-opacity:0; stroke-width: 2; stroke: #000000" points="54.9125,281.764 62.9125,297.764 70.9125,281.764 "/>
  </g>
  <g>
    <polyline style="fill: none; fill-opacity:0; stroke-width: 2; stroke-dasharray: 8; stroke: #000000" points="-139.15,281.764 -139.15,220 85.775,220 85.775,196.73 "/>
    <polygon style="fill: #ffffff" points="-147.15,281.764 -139.15,297.764 -131.15,281.764 "/>
    <polygon style="fill: none; fill-opacity:0; stroke-width: 2; stroke: #000000" points="-147.15,281.764 -139.15,297.764 -131.15,281.764 "/>
  </g>
  <g>
    <rect style="fill: #ffffff" x="-194.75" y="590.423" width="110.9" height="28"/>
    <rect style="fill: none; fill-opacity:0; stroke-width: 4; stroke: #000000" x="-194.75" y="590.423" width="110.9" height="28"/>
    <text style="fill: #000000;text-anchor:middle;font-size:16;font-family:sanserif;font-style:normal;font-weight:700" x="-139.3" y="609.423">component</text>
  </g>
  <g>
    <polyline style="fill: none; fill-opacity:0; stroke-width: 2; stroke-dasharray: 8; stroke: #000000" points="-139.3,494.236 -139.3,589.416 -139.3,589.416 "/>
    <polygon style="fill: #ffffff" points="-131.3,494.236 -139.3,478.236 -147.3,494.236 "/>
    <polygon style="fill: none; fill-opacity:0; stroke-width: 2; stroke: #000000" points="-131.3,494.236 -139.3,478.236 -147.3,494.236 "/>
  </g>
  <g>
    <rect style="fill: #ffffff" x="23.5625" y="590.423" width="78.15" height="28"/>
    <rect style="fill: none; fill-opacity:0; stroke-width: 4; stroke: #000000" x="23.5625" y="590.423" width="78.15" height="28"/>
    <text style="fill: #000000;text-anchor:middle;font-size:16;font-family:sanserif;font-style:normal;font-weight:700" x="62.6375" y="609.423">binding</text>
  </g>
  <g>
    <polyline style="fill: none; fill-opacity:0; stroke-width: 2; stroke-dasharray: 8; stroke: #000000" points="62.6375,575.244 62.6375,589.416 62.6375,589.416 "/>
    <polygon style="fill: #ffffff" points="70.6375,575.244 62.6375,559.244 54.6375,575.244 "/>
    <polygon style="fill: none; fill-opacity:0; stroke-width: 2; stroke: #000000" points="70.6375,575.244 62.6375,559.244 54.6375,575.244 "/>
  </g>
  <g>
    <rect style="fill: #ffffff" x="208.225" y="590.423" width="91.4" height="28"/>
    <rect style="fill: none; fill-opacity:0; stroke-width: 4; stroke: #000000" x="208.225" y="590.423" width="91.4" height="28"/>
    <text style="fill: #000000;text-anchor:middle;font-size:16;font-family:sanserif;font-style:normal;font-weight:700" x="253.925" y="609.423">interface</text>
  </g>
  <g>
    <rect style="fill: #ffffff" x="407.088" y="590.423" width="90.85" height="28"/>
    <rect style="fill: none; fill-opacity:0; stroke-width: 4; stroke: #000000" x="407.088" y="590.423" width="90.85" height="28"/>
    <text style="fill: #000000;text-anchor:middle;font-size:16;font-family:sanserif;font-style:normal;font-weight:700" x="452.513" y="609.423">attribute</text>
  </g>
  <g>
    <polyline style="fill: none; fill-opacity:0; stroke-width: 2; stroke-dasharray: 8; stroke: #000000" points="253.925,495.243 253.925,589.416 253.925,589.416 "/>
    <polygon style="fill: #ffffff" points="261.925,495.243 253.925,479.243 245.925,495.243 "/>
    <polygon style="fill: none; fill-opacity:0; stroke-width: 2; stroke: #000000" points="261.925,495.243 253.925,479.243 245.925,495.243 "/>
  </g>
  <g>
    <polyline style="fill: none; fill-opacity:0; stroke-width: 2; stroke-dasharray: 8; stroke: #000000" points="452.513,511.245 452.513,589.416 452.513,589.416 "/>
    <polygon style="fill: #ffffff" points="460.513,511.245 452.513,495.245 444.513,511.245 "/>
    <polygon style="fill: none; fill-opacity:0; stroke-width: 2; stroke: #000000" points="460.513,511.245 452.513,495.245 444.513,511.245 "/>
  </g>
  <g>
    <rect style="fill: #ffffff" x="582.75" y="590.423" width="50.7" height="28"/>
    <rect style="fill: none; fill-opacity:0; stroke-width: 4; stroke: #000000" x="582.75" y="590.423" width="50.7" height="28"/>
    <text style="fill: #000000;text-anchor:middle;font-size:16;font-family:sanserif;font-style:normal;font-weight:700" x="608.1" y="609.423">data</text>
  </g>
  <g>
    <rect style="fill: #ffffff" x="701" y="590.423" width="70.15" height="28"/>
    <rect style="fill: none; fill-opacity:0; stroke-width: 4; stroke: #000000" x="701" y="590.423" width="70.15" height="28"/>
    <text style="fill: #000000;text-anchor:middle;font-size:16;font-family:sanserif;font-style:normal;font-weight:700" x="736.075" y="609.423">source</text>
  </g>
  <g>
    <polyline style="fill: none; fill-opacity:0; stroke-width: 2; stroke-dasharray: 8; stroke: #000000" points="608.1,511.245 608.1,589.416 608.1,589.416 "/>
    <polygon style="fill: #ffffff" points="616.1,511.245 608.1,495.245 600.1,511.245 "/>
    <polygon style="fill: none; fill-opacity:0; stroke-width: 2; stroke: #000000" points="616.1,511.245 608.1,495.245 600.1,511.245 "/>
  </g>
  <g>
    <polyline style="fill: none; fill-opacity:0; stroke-width: 2; stroke-dasharray: 8; stroke: #000000" points="736.075,511.245 736.075,589.416 736.075,589.416 "/>
    <polygon style="fill: #ffffff" points="744.075,511.245 736.075,495.245 728.075,511.245 "/>
    <polygon style="fill: none; fill-opacity:0; stroke-width: 2; stroke: #000000" points="744.075,511.245 736.075,495.245 728.075,511.245 "/>
  </g>
  <g>
    <rect style="fill: #ffffff" x="-195.075" y="169.465" width="188.65" height="28"/>
    <rect style="fill: none; fill-opacity:0; stroke-width: 4; stroke: #000000" x="-195.075" y="169.465" width="188.65" height="28"/>
    <text style="fill: #000000;text-anchor:middle;font-size:16;font-family:sanserif;font-style:normal;font-weight:700" x="-100.75" y="188.465">definitionReference</text>
  </g>
  <g>
    <polyline style="fill: none; fill-opacity:0; stroke-width: 2; stroke-dasharray: 8; stroke: #000000" points="-100.75,154.236 -100.75,169.465 -100.75,169.465 "/>
    <polygon style="fill: #ffffff" points="-92.75,154.236 -100.75,138.236 -108.75,154.236 "/>
    <polygon style="fill: none; fill-opacity:0; stroke-width: 2; stroke: #000000" points="-92.75,154.236 -100.75,138.236 -108.75,154.236 "/>
  </g>
  <g>
    <rect style="fill: #ffffff" x="280" y="640" width="132.85" height="42"/>
    <rect style="fill: none; fill-opacity:0; stroke-width: 2; stroke: #000000" x="280" y="640" width="132.85" height="42"/>
    <text style="fill: #000000;text-anchor:middle;font-size:16;font-family:sanserif;font-style:italic;font-weight:700" x="346.425" y="659">TypeInterface</text>
    <text style="fill: #000000;text-anchor:middle;font-size:11.2;font-family:sanserif;font-style:italic;font-weight:normal" x="346.425" y="674.5">(1)</text>
    <rect style="fill: #ffffff" x="280" y="682" width="132.85" height="68"/>
    <rect style="fill: none; fill-opacity:0; stroke-width: 2; stroke: #000000" x="280" y="682" width="132.85" height="68"/>
    <text style="fill: #000000;text-anchor:start;font-size:12.8;font-family:monospace;font-style:normal;font-weight:normal" x="283" y="696">+name</text>
    <text style="fill: #000000;text-anchor:start;font-size:12.8;font-family:monospace;font-style:normal;font-weight:normal" x="283" y="712">+role</text>
    <text style="fill: #000000;text-anchor:start;font-size:12.8;font-family:monospace;font-style:normal;font-weight:normal" x="283" y="728">+signature</text>
    <text style="fill: #000000;text-anchor:start;font-size:12.8;font-family:monospace;font-style:normal;font-weight:normal" x="283" y="744">+cardinality</text>
    <rect style="fill: #ffffff" x="280" y="750" width="132.85" height="8"/>
    <rect style="fill: none; fill-opacity:0; stroke-width: 2; stroke: #000000" x="280" y="750" width="132.85" height="8"/>
  </g>
  <g>
    <polyline style="fill: none; fill-opacity:0; stroke-width: 2; stroke: #000000" points="346.425,621.764 346.425,434 321.975,434 "/>
    <polygon style="fill: #ffffff" points="338.425,621.764 346.425,637.764 354.425,621.764 "/>
    <polygon style="fill: none; fill-opacity:0; stroke-width: 2; stroke: #000000" points="338.425,621.764 346.425,637.764 354.425,621.764 "/>
  </g>
  <g>
    <rect style="fill: #ffffff" x="440" y="640" width="204.8" height="42"/>
    <rect style="fill: none; fill-opacity:0; stroke-width: 2; stroke: #000000" x="440" y="640" width="204.8" height="42"/>
    <text style="fill: #000000;text-anchor:middle;font-size:16;font-family:sanserif;font-style:italic;font-weight:700" x="542.4" y="659">SingleValueContainer</text>
    <text style="fill: #000000;text-anchor:middle;font-size:11.2;font-family:sanserif;font-style:italic;font-weight:normal" x="542.4" y="674.5">(2)</text>
  </g>
  <g>
    <polyline style="fill: none; fill-opacity:0; stroke-width: 2; stroke: #000000" points="542.4,620.759 542.4,434 498.538,434 "/>
    <polygon style="fill: #ffffff" points="534.4,620.759 542.4,636.759 550.4,620.759 "/>
    <polygon style="fill: none; fill-opacity:0; stroke-width: 2; stroke: #000000" points="534.4,620.759 542.4,636.759 550.4,620.759 "/>
  </g>
  <g>
    <rect style="fill: #ffffff" x="360" y="-20" width="176.05" height="28"/>
    <rect style="fill: none; fill-opacity:0; stroke-width: 2; stroke: #000000" x="360" y="-20" width="176.05" height="28"/>
    <text style="fill: #000000;text-anchor:middle;font-size:16;font-family:sanserif;font-style:italic;font-weight:700" x="448.025" y="-1">AbstractDefinition</text>
    <rect style="fill: #ffffff" x="360" y="8" width="176.05" height="20"/>
    <rect style="fill: none; fill-opacity:0; stroke-width: 2; stroke: #000000" x="360" y="8" width="176.05" height="20"/>
    <text style="fill: #000000;text-anchor:start;font-size:12.8;font-family:monospace;font-style:normal;font-weight:normal" x="363" y="22">+isAbstract</text>
    <rect style="fill: #ffffff" x="360" y="28" width="176.05" height="8"/>
    <rect style="fill: none; fill-opacity:0; stroke-width: 2; stroke: #000000" x="360" y="28" width="176.05" height="8"/>
  </g>
  <g>
    <polyline style="fill: none; fill-opacity:0; stroke-width: 2; stroke-dasharray: 8; stroke: #000000" points="448.025,55.2107 448.025,100 420.967,100 420.967,168.73 "/>
    <polygon style="fill: #ffffff" points="456.025,55.2107 448.025,39.2107 440.025,55.2107 "/>
    <polygon style="fill: none; fill-opacity:0; stroke-width: 2; stroke: #000000" points="456.025,55.2107 448.025,39.2107 440.025,55.2107 "/>
  </g>
  <line style="fill: none; fill-opacity:0; stroke-width: 2; stroke: #000000" x1="360" y1="168.73" x2="451.45" y2="168.73"/>
  <line style="fill: none; fill-opacity:0; stroke-width: 2; stroke: #000000" x1="300" y1="-70" x2="399.05" y2="-70"/>
  <g>
    <polyline style="fill: none; fill-opacity:0; stroke-width: 2; stroke: #000000" points="366.033,-51.7639 366.033,-45 448.025,-45 448.025,-20 "/>
    <polygon style="fill: #ffffff" points="374.033,-51.7639 366.033,-67.7639 358.033,-51.7639 "/>
    <polygon style="fill: none; fill-opacity:0; stroke-width: 2; stroke: #000000" points="374.033,-51.7639 366.033,-67.7639 358.033,-51.7639 "/>
  </g>
</svg>
